# Blender 3.1.0
# www.blender.org
mtllib flashlight.mtl
o Cylinder.001
v 1.058241 1.825366 -0.610976
v 0.000000 1.825366 -1.221951
v 1.058241 1.825366 0.610976
v -0.000000 1.825366 1.221951
v -1.058241 1.825366 0.610976
v -1.058241 1.825366 -0.610976
v 0.000000 -1.000000 -1.000000
v 0.000000 1.000000 -1.000000
v 0.866025 -1.000000 -0.500000
v 0.866025 1.000000 -0.500000
v 0.866025 -1.000000 0.500000
v 0.866025 1.000000 0.500000
v -0.000000 -1.000000 1.000000
v -0.000000 1.000000 1.000000
v -0.866025 -1.000000 0.500000
v -0.866025 1.000000 0.500000
v -0.866025 -1.000000 -0.500000
v -0.866025 1.000000 -0.500000
v 1.274214 1.972127 -0.735668
v 0.000000 1.972127 -1.471336
v 1.274214 1.972127 0.735668
v -0.000000 1.972127 1.471336
v -1.274214 1.972127 0.735668
v -1.274214 1.972127 -0.735668
v 1.058241 1.972127 -0.610976
v 0.000000 1.972127 -1.221951
v 1.058241 1.972127 0.610976
v -0.000000 1.972127 1.221951
v -1.058241 1.972127 0.610976
v -1.058241 1.972127 -0.610976
v 1.058241 1.825366 -0.610976
v 0.000000 1.825366 -1.221951
v 1.058241 1.825366 0.610976
v -0.000000 1.825366 1.221951
v -1.058241 1.825366 0.610976
v -1.058241 1.825366 -0.610976
vn -0.0000 1.0000 -0.0000
vn 0.5000 -0.0000 -0.8660
vn 1.0000 -0.0000 -0.0000
vn 0.5000 -0.0000 0.8660
vn -0.5000 -0.0000 0.8660
vn 0.9220 -0.3871 -0.0000
vn -1.0000 -0.0000 -0.0000
vn -0.5000 -0.0000 -0.8660
vn -0.0000 -1.0000 -0.0000
vn -0.9220 -0.3871 -0.0000
vn 0.4610 -0.3871 -0.7985
vn 0.4610 -0.3871 0.7985
vn -0.4610 -0.3871 -0.7985
vn -0.4610 -0.3871 0.7985
vt 0.457846 0.370000
vt 0.250000 0.490000
vt 0.457846 0.130000
vt 0.250000 0.010000
vt 0.042154 0.130000
vt 0.042154 0.370000
vt 1.000000 0.500000
vt -0.000000 0.500000
vt 0.750000 0.490000
vt 1.000000 1.000000
vt -0.000000 1.000000
vt 0.833333 0.500000
vt 0.957846 0.370000
vt 0.833333 1.000000
vt 0.666667 0.500000
vt 0.957846 0.130000
vt 0.666667 1.000000
vt 0.500000 0.500000
vt 0.750000 0.010000
vt 0.500000 1.000000
vt 0.333333 0.500000
vt 0.542154 0.130000
vt 0.333333 1.000000
vt 0.166667 0.500000
vt 0.542154 0.370000
vt 0.166667 1.000000
vt 0.833333 1.000000
vt 1.000000 1.000000
vt -0.000000 1.000000
vt 0.666667 1.000000
vt 0.500000 1.000000
vt 0.333333 1.000000
vt 0.166667 1.000000
vt 0.833333 1.000000
vt -0.000000 1.000000
vt 1.000000 1.000000
vt 0.666667 1.000000
vt 0.500000 1.000000
vt 0.333333 1.000000
vt 0.166667 1.000000
vt 0.833333 1.000000
vt -0.000000 1.000000
vt 1.000000 1.000000
vt 0.666667 1.000000
vt 0.500000 1.000000
vt 0.333333 1.000000
vt 0.166667 1.000000
s 0
usemtl Material.002
f 1/1/1 2/2/1 6/6/1 5/5/1 4/4/1 3/3/1
usemtl Material.001
f 7/7/2 8/10/2 10/14/2 9/12/2
f 9/12/3 10/14/3 12/17/3 11/15/3
f 11/15/4 12/17/4 14/20/4 13/18/4
f 13/18/5 14/20/5 16/23/5 15/21/5
f 12/17/6 10/14/6 19/27/6 21/30/6
f 15/21/7 16/23/7 18/26/7 17/24/7
f 17/24/8 18/26/8 8/11/8 7/8/8
f 7/9/9 9/13/9 11/16/9 13/19/9 15/22/9 17/25/9
f 24/33/1 23/32/1 29/39/1 30/40/1
f 18/26/10 16/23/10 23/32/10 24/33/10
f 10/14/11 8/10/11 20/28/11 19/27/11
f 14/20/12 12/17/12 21/30/12 22/31/12
f 8/11/13 18/26/13 24/33/13 20/29/13
f 16/23/14 14/20/14 22/31/14 23/32/14
f 26/35/4 30/40/4 36/47/4 32/42/4
f 22/31/1 21/30/1 27/37/1 28/38/1
f 19/27/1 20/28/1 26/36/1 25/34/1
f 20/29/1 24/33/1 30/40/1 26/35/1
f 23/32/1 22/31/1 28/38/1 29/39/1
f 21/30/1 19/27/1 25/34/1 27/37/1
f 29/39/2 28/38/2 34/45/2 35/46/2
f 27/37/7 25/34/7 31/41/7 33/44/7
f 30/40/3 29/39/3 35/46/3 36/47/3
f 28/38/8 27/37/8 33/44/8 34/45/8
f 25/34/5 26/36/5 32/43/5 31/41/5
