# Blender 3.1.0
# www.blender.org
mtllib light.mtl
o light
v -0.500000 -0.124999 1.000000
v -0.500000 0.125001 1.000000
v -0.500000 0.125001 -1.000000
v -0.500000 0.125001 -1.000000
v -0.500000 -0.124999 -1.000000
v -0.500000 -0.124999 1.000000
v 0.500000 0.125001 1.000000
v 0.500000 0.125001 -1.000000
v -0.500000 0.125001 -1.000000
v -0.500000 0.125001 -1.000000
v -0.500000 0.125001 1.000000
v 0.500000 0.125001 1.000000
v 0.500000 -0.124999 -1.000000
v -0.500000 -0.124999 -1.000000
v -0.500000 0.125001 -1.000000
v -0.500000 0.125001 -1.000000
v 0.500000 0.125001 -1.000000
v 0.500000 -0.124999 -1.000000
v 0.500000 -0.124999 -1.000000
v 0.500000 0.125001 -1.000000
v 0.500000 0.125001 1.000000
v 0.500000 0.125001 1.000000
v 0.500000 -0.124999 1.000000
v 0.500000 -0.124999 -1.000000
v -0.500000 -0.124999 1.000000
v -0.500000 -0.124999 -1.000000
v 0.500000 -0.124999 -1.000000
v 0.500000 -0.124999 -1.000000
v 0.500000 -0.124999 1.000000
v -0.500000 -0.124999 1.000000
v 0.500000 0.125001 1.000000
v -0.500000 0.125001 1.000000
v -0.500000 -0.124999 1.000000
v -0.500000 -0.124999 1.000000
v 0.500000 -0.124999 1.000000
v 0.500000 0.125001 1.000000
vn -1.0000 -0.0000 -0.0000
vn -0.0000 1.0000 -0.0000
vn -0.0000 -0.0000 -1.0000
vn 1.0000 -0.0000 -0.0000
vn -0.0000 -1.0000 -0.0000
vn -0.0000 -0.0000 1.0000
vt 1.000000 1.000000
vt 0.000000 1.000000
vt 0.000000 0.000000
vt 0.000000 0.000000
vt 1.000000 0.000000
vt 1.000000 1.000000
vt 1.000000 1.000000
vt 0.000000 1.000000
vt 0.000000 0.000000
vt 0.000000 0.000000
vt 1.000000 0.000000
vt 1.000000 1.000000
vt 1.000000 1.000000
vt 0.000000 1.000000
vt 0.000000 0.000000
vt 0.000000 0.000000
vt 1.000000 0.000000
vt 1.000000 1.000000
vt 1.000000 1.000000
vt 0.000000 1.000000
vt 0.000000 0.000000
vt 0.000000 0.000000
vt 1.000000 0.000000
vt 1.000000 1.000000
vt 1.000000 1.000000
vt 0.000000 1.000000
vt 0.000000 0.000000
vt 0.000000 0.000000
vt 1.000000 0.000000
vt 1.000000 1.000000
vt 1.000000 1.000000
vt 0.000000 1.000000
vt 0.000000 0.000000
vt 0.000000 0.000000
vt 1.000000 0.000000
vt 1.000000 1.000000
s 1
usemtl [SpatialMaterial:20087]
f 1/1/1 2/2/1 3/3/1
f 4/4/1 5/5/1 6/6/1
f 7/7/2 8/8/2 9/9/2
f 10/10/2 11/11/2 12/12/2
f 13/13/3 14/14/3 15/15/3
f 16/16/3 17/17/3 18/18/3
f 19/19/4 20/20/4 21/21/4
f 22/22/4 23/23/4 24/24/4
f 25/25/5 26/26/5 27/27/5
f 28/28/5 29/29/5 30/30/5
f 31/31/6 32/32/6 33/33/6
f 34/34/6 35/35/6 36/36/6
